<?xml version="1.0" standalone="no"?>
<!DOCTYPE svg PUBLIC "-//W3C//DTD SVG 20010904//EN"
 "http://www.w3.org/TR/2001/REC-SVG-20010904/DTD/svg10.dtd">
<svg version="1.0" xmlns="http://www.w3.org/2000/svg"
 width="700.000000pt" height="700.000000pt" viewBox="0 0 700.000000 700.000000"
 preserveAspectRatio="xMidYMid meet">
<metadata>
Created by potrace 1.14, written by Peter Selinger 2001-2017
</metadata>
<g transform="translate(0.000000,700.000000) scale(0.100000,-0.100000)"
fill="#000000" stroke="none">
<path d="M655 6375 c0 -618 0 -626 20 -630 11 -2 110 -3 219 -2 l200 2 0 625
0 625 -220 3 -219 2 0 -625z"/>
<path d="M3283 4758 l2 -2243 217 0 217 0 -2 2240 -2 2240 -217 3 -216 2 1
-2242z"/>
<path d="M5909 6988 c0 -7 -2 -610 -2 -1341 l-2 -1327 216 0 c165 0 218 3 221
13 2 6 3 608 3 1337 l-1 1325 -217 3 c-170 2 -217 0 -218 -10z"/>
<path d="M10 5412 c-6 -2 -10 -157 -10 -438 l0 -434 875 0 875 0 0 435 c0 239
-3 435 -7 436 -21 3 -1724 4 -1733 1z"/>
<path d="M658 4203 c-2 -5 -3 -951 -3 -2103 l1 -2095 216 -3 c199 -2 216 -1
219 15 3 10 4 956 4 2103 l-1 2085 -216 3 c-119 1 -218 -1 -220 -5z"/>
<path d="M5293 3992 l-43 -3 0 -435 c0 -340 3 -434 13 -435 6 0 399 -1 872 -2
l860 0 3 436 2 437 -42 0 c-393 3 -1634 4 -1665 2z"/>
<path d="M5909 2788 c0 -2 -2 -630 -2 -1396 l-2 -1392 220 0 220 0 0 1395 0
1395 -217 0 c-120 0 -218 -1 -219 -2z"/>
<path d="M2628 2177 c-2 -7 -4 -203 -4 -437 l1 -425 875 0 875 0 1 425 c0 234
-1 430 -4 436 -5 18 -1739 18 -1744 1z"/>
<path d="M3282 492 l-1 -492 217 2 217 3 0 490 0 489 -217 1 -216 0 0 -493z"/>
</g>
</svg>
